<svg width="100" height="100" viewBox="0 0 100 100" fill="none" xmlns="http://www.w3.org/2000/svg">
<rect width="100" height="100" rx="20" fill="hsl(221, 83%, 53%)"/>
<g transform="translate(25 20) scale(1.5)">
  <path d="M18 8C18 5.79086 16.2091 4 14 4C11.7909 4 10 5.79086 10 8V10H18V8Z" stroke="white" stroke-width="2" stroke-linecap="round" stroke-linejoin="round"/>
  <path d="M8 10H20C21.1046 10 22 10.8954 22 12V20C22 21.1046 21.1046 22 20 22H8C6.89543 22 6 21.1046 6 20V12C6 10.8954 6.89543 10 8 10Z" stroke="white" stroke-width="2" stroke-linecap="round" stroke-linejoin="round"/>
  <circle cx="14" cy="16" r="2" fill="white"/>
  <path d="M14 18V20" stroke="white" stroke-width="2" stroke-linecap="round" stroke-linejoin="round"/>
</g>
</svg>
